# Blender 4.4.3
# www.blender.org
mtllib biscuit.mtl
o Cylinder
v 1.198687 -1.928923 4.457942
v -2.839036 -2.902430 0.960952
v -0.961193 2.901964 2.839747
v -4.293884 1.886787 0.545443
v -3.421921 1.886787 -2.650548
v -4.457942 -1.928923 1.198687
v -0.961193 -2.901964 -2.839747
v -2.839036 2.902430 -0.960952
v -0.545443 1.886787 -4.293884
v 2.650548 1.886787 -3.421921
v -1.198687 -1.928923 -4.457942
v 2.839036 -2.902430 -0.960952
v 0.961193 2.901964 -2.839747
v 4.293884 1.886787 -0.545443
v 3.421921 -1.886787 -2.650548
v 3.421921 1.886787 2.650548
v 4.293884 -1.886787 0.545443
v 0.961193 -2.901964 2.839747
v 2.839036 2.902430 0.960952
v -1.198687 1.928923 4.457942
vn -0.7774 0.1385 0.6135
vn -0.9647 -0.0036 -0.2632
vn -0.4924 0.1214 -0.8619
vn 0.2632 -0.0036 -0.9647
vn 0.8658 0.0759 -0.4946
vn 0.9620 0.0759 0.2625
vn 0.3570 0.2218 0.9074
vn -0.6851 0.7041 -0.1869
vn 0.1869 0.7040 -0.6852
vn 0.6851 -0.7041 -0.1869
vn 0.6851 0.7041 0.1869
vn -0.4768 -0.2963 0.8276
vn -0.0000 -1.0000 -0.0000
vn -0.8369 -0.2592 -0.4822
vn 0.3628 -0.1149 -0.9248
vn 0.9620 -0.0759 -0.2625
vn 0.7748 -0.1619 0.6112
vn -0.3091 -0.7620 0.5691
vn -0.4555 0.8420 0.2891
vn -0.5691 -0.7620 -0.3091
vn -0.2219 0.8796 -0.4207
vn 0.2170 -0.8464 -0.4862
vn 0.4207 0.8796 -0.2219
vn 0.4555 -0.8420 0.2891
vn 0.2170 0.8464 0.4862
vn -0.0000 1.0000 -0.0000
vt 0.791674 0.912820
vt 0.770186 0.587180
vt 0.941290 0.587180
vt 0.645186 0.587180
vt 0.541674 0.912820
vt 0.520186 0.587180
vt 0.395186 0.587180
vt 0.354814 0.912820
vt 0.270186 0.587180
vt 0.229814 0.912820
vt 0.145186 0.587180
vt 0.058710 0.912820
vt 0.026370 0.587180
vt 0.935391 0.106617
vt 0.883150 0.204691
vt 0.982478 0.279704
vt 0.606617 0.064609
vt 0.704691 0.116849
vt 0.779704 0.017522
vt 0.064609 0.106617
vt 0.116849 0.204692
vt 0.017522 0.279704
vt 0.564609 0.393383
vt 0.616849 0.295309
vt 0.517522 0.220296
vt 0.973630 0.912820
vt 0.295309 0.116849
vt 0.383151 0.295308
vt 0.204691 0.383150
vt 0.459176 0.305953
vt 0.194047 0.459176
vt 0.795309 0.383150
vt 0.805953 0.459176
vt 0.305953 0.040824
s 0
f 6/1/1 20/3/1 4/2/1
f 6/1/2 4/2/2 5/4/2
f 11/5/3 5/4/3 9/6/3
f 11/5/4 9/6/4 10/7/4
f 15/8/5 10/7/5 14/9/5
f 17/10/6 14/9/6 16/11/6
f 1/12/7 16/11/7 20/13/7
f 5/14/8 4/16/8 8/15/8
f 10/17/9 9/19/9 13/18/9
f 15/20/10 17/22/10 12/21/10
f 16/23/11 14/25/11 19/24/11
f 1/26/12 20/3/12 6/1/12
f 7/27/13 12/21/13 18/29/13 2/28/13
f 6/1/14 5/4/14 11/5/14
f 11/5/15 10/7/15 15/8/15
f 15/8/16 14/9/16 17/10/16
f 17/10/17 16/11/17 1/12/17
f 2/28/18 18/29/18 1/31/18 6/30/18
f 3/32/19 8/15/19 4/16/19 20/33/19
f 7/27/20 2/28/20 6/30/20 11/34/20
f 8/15/21 13/18/21 9/19/21 5/14/21
f 12/21/22 7/27/22 11/34/22 15/20/22
f 13/18/23 19/24/23 14/25/23 10/17/23
f 18/29/24 12/21/24 17/22/24 1/31/24
f 19/24/25 3/32/25 20/33/25 16/23/25
f 13/18/26 8/15/26 3/32/26 19/24/26
